<svg version="1.1" id="Capa_1" xmlns="http://www.w3.org/2000/svg" xmlns:xlink="http://www.w3.org/1999/xlink" x="0px" y="0px" viewBox="0 0 512 512" style="enable-background:new 0 0 512 512;" xml:space="preserve">
	<g>
		<polygon style="fill:#DADCDA;" points="415.067,51.062 415.067,378.465 394.241,390.504 387.322,394.448 216.079,493.319 
		209.16,497.332 183.699,512 96.935,460.938 96.935,133.535 328.304,0 	" />
		<polygon style="fill:#B4B4B3;" points="183.699,184.666 183.699,512 96.935,460.938 96.935,133.535 	" />
		<polygon style="fill:#717275;" points="415.067,51.062 415.067,378.465 394.241,390.504 387.322,394.448 216.079,493.319 
		209.16,497.332 183.699,512 183.699,184.666 209.16,169.929 216.079,165.985 387.322,67.114 394.241,63.101 	" />
		<path style="fill:#BDDCF3;" d="M151.351,444.251c-5.981-4.401-9.55-11.354-9.639-18.779V208.869c0-7.238,4.316-10.564,9.639-7.43
		c5.981,4.401,9.55,11.354,9.639,18.779V436.82C160.99,444.058,156.675,447.385,151.351,444.251z" />
		<path style="fill:#EBECED;" d="M124.055,426.136c-0.609,1.069-1.745,1.729-2.975,1.73c-0.612,0.012-1.213-0.157-1.73-0.484
		l-22.417-13.008v-8.026l25.877,15.083c0.795,0.453,1.374,1.207,1.608,2.092C124.652,424.407,124.521,425.349,124.055,426.136z" />
		<polygon style="fill:#B4B4B3;" points="415.067,82.266 415.067,90.223 394.241,102.192 394.241,390.504 387.322,394.448 
		387.322,106.136 216.079,204.454 216.079,493.319 209.16,497.332 209.16,208.467 183.699,223.135 183.699,215.109 209.16,200.51 
		209.16,169.929 216.079,165.985 216.079,196.497 387.322,98.179 387.322,67.114 394.241,63.101 394.241,94.236 	" />
		<g>
			<polygon style="fill:#EBECED;" points="121.082,187.226 121.082,215.386 97.004,201.202 96.935,201.202 96.935,173.042 
			97.004,173.042 		" />
			<polygon style="fill:#EBECED;" points="121.082,237.942 121.082,260.497 97.004,246.314 96.935,246.314 96.935,223.758 
			97.004,223.758 		" />
			<polygon style="fill:#EBECED;" points="121.082,283.053 121.082,395.762 97.004,381.578 96.935,381.578 96.935,268.869 
			97.004,268.869 		" />
		</g>
	</g>
	<g>
	</g>
	<g>
	</g>
	<g>
	</g>
	<g>
	</g>
	<g>
	</g>
	<g>
	</g>
	<g>
	</g>
	<g>
	</g>
	<g>
	</g>
	<g>
	</g>
	<g>
	</g>
	<g>
	</g>
	<g>
	</g>
	<g>
	</g>
	<g>
	</g>
</svg>
