<svg version="1.1" id="Capa_1" xmlns="http://www.w3.org/2000/svg" xmlns:xlink="http://www.w3.org/1999/xlink" x="0px" y="0px" viewBox="0 0 511.957 511.957" style="enable-background:new 0 0 511.957 511.957;" xml:space="preserve">
	<g>
		<path style="fill:#668892;" d="M457.477,199.914c0-19.165-11.624-41.514-26.015-49.747l-42.344-24.493L441.632,95.3L177.122,3.278
		l-0.346-0.208c-4.697-3.279-10.727-3.981-16.052-1.868l-2.076,1.176l-0.208,0.069L64.689,56.623L64.274,56.9l-2.006,1.176
		c-5.597,5.154-8.463,12.628-7.749,20.203v256.554l58.188,33.557l190.478,109.942l58.188,33.626l96.104-55.49L457.477,199.914
		L457.477,199.914z" />
		<path style="fill:#445C71;" d="M361.373,317.812v194.145l-58.188-33.626V369.289c-0.14-10.457-5.254-20.221-13.769-26.292
		L126.476,248.9c-7.611-4.359-13.769,0.277-13.769,10.378v109.111l-58.188-33.557V140.619L361.373,317.812z" />
		<polygon style="fill:#4F6F7F;" points="303.187,417.652 303.187,478.331 112.709,368.389 112.709,307.71 	" />
		<path style="fill:#CBD4D8;" d="M244.965,287.842c-1.212,0.001-2.403-0.318-3.453-0.926l-79.351-45.811
		c-3.31-1.911-4.444-6.143-2.534-9.453c1.911-3.31,6.143-4.444,9.453-2.534l79.351,45.811c2.714,1.566,4.038,4.761,3.225,7.787
		C250.844,285.744,248.098,287.846,244.965,287.842z" />
		<path style="fill:#394F63;" d="M441.633,95.3l-52.515,30.374l-18.404,10.586l-25.254,14.599L188.331,96.199L81.295,58.975
		l-0.069-0.069l-0.623-0.346c-4.779-3.369-10.97-3.998-16.329-1.661l0.415-0.277l93.751-54.175l0.208-0.069l2.076-1.176
		c5.325-2.113,11.354-1.411,16.052,1.868l0.346,0.208L441.633,95.3z" />
		<path style="fill:#546A79;" d="M81.226,58.906l-0.277-0.069" />
		<polygon style="fill:#36B6D6;" points="186.811,144.147 186.811,192.718 80.952,131.624 80.952,83.053 	" />
		<path style="fill:#53BDAD;" d="M334.874,253.95c0,10.102-7.057,14.115-15.844,9.064c-9.364-6.069-15.254-16.256-15.844-27.399
		c0-10.032,7.057-14.045,15.844-8.995C328.376,232.674,334.265,242.831,334.874,253.95z" />
		<polygon style="fill:#36B6D6;" points="389.466,147.122 333.769,180.541 188.333,96.199 345.462,150.859 370.716,136.26 	" />
		<path style="fill:#4F6F7F;" d="M457.477,199.914v62.409l-96.104,55.49v-62.339c0-19.235-11.693-41.514-26.084-49.816L81.295,58.975
		l107.036,37.224l145.436,84.342l55.697-33.418l-18.75-10.863l18.404-10.586l42.344,24.493
		C445.853,158.4,457.477,180.748,457.477,199.914z" />
		<g>
			<path style="fill:#CBD4D8;" d="M218.512,181.552c-1.212,0.001-2.403-0.318-3.453-0.926l-5.291-3.054
			c-3.308-1.912-4.441-6.142-2.531-9.451s6.14-4.444,9.45-2.536l5.291,3.054c2.714,1.566,4.038,4.761,3.225,7.787
			C224.391,179.453,221.646,181.556,218.512,181.552z" />
			<path style="fill:#CBD4D8;" d="M218.512,205.822c-1.212,0.001-2.403-0.318-3.453-0.926l-5.291-3.054
			c-3.308-1.912-4.441-6.142-2.531-9.451s6.14-4.444,9.45-2.536l5.291,3.054c2.714,1.566,4.038,4.761,3.225,7.787
			S221.646,205.826,218.512,205.822z" />
			<path style="fill:#CBD4D8;" d="M244.965,196.822c-1.212,0.001-2.403-0.318-3.453-0.926l-5.29-3.054
			c-3.308-1.912-4.441-6.142-2.531-9.451c1.91-3.309,6.14-4.444,9.45-2.536l5.29,3.054c2.714,1.566,4.038,4.761,3.225,7.787
			C250.844,194.723,248.098,196.826,244.965,196.822z" />
			<path style="fill:#CBD4D8;" d="M244.965,221.099c-1.212,0.001-2.403-0.318-3.453-0.926l-5.29-3.054
			c-3.308-1.912-4.441-6.142-2.531-9.451c1.91-3.309,6.14-4.444,9.45-2.536l5.29,3.054c2.714,1.566,4.038,4.761,3.225,7.787
			C250.844,219,248.098,221.103,244.965,221.099z" />
		</g>
		<path style="fill:#668892;" d="M303.185,369.289v48.363L112.707,307.71v-48.432c0-10.102,6.157-14.737,13.769-10.378
		l162.941,94.097C297.931,349.068,303.045,358.832,303.185,369.289z" />
		<polygon style="fill:#394F63;" points="457.479,262.322 457.479,456.467 361.375,511.957 361.375,317.812 	" />
		<path style="fill:#546A79;" d="M457.546,262.253l-0.069,0.069" />
		<g>
			<path style="fill:#3A3E48;" d="M228.725,332.226l-46.861-27.055c-3.499-2.506-5.601-6.523-5.666-10.826v-16.717l58.193,33.598
			v16.717C234.391,332.115,231.854,334.032,228.725,332.226z" />
			<path style="fill:#3A3E48;" d="M228.725,398.974l-46.861-27.055c-3.499-2.506-5.601-6.523-5.666-10.826v-16.717l58.193,33.598
			v16.717C234.391,398.863,231.854,400.78,228.725,398.974z" />
		</g>
	</g>
	<g>
	</g>
	<g>
	</g>
	<g>
	</g>
	<g>
	</g>
	<g>
	</g>
	<g>
	</g>
	<g>
	</g>
	<g>
	</g>
	<g>
	</g>
	<g>
	</g>
	<g>
	</g>
	<g>
	</g>
	<g>
	</g>
	<g>
	</g>
	<g>
	</g>
</svg>
