<svg version="1.1" id="Capa_1" xmlns="http://www.w3.org/2000/svg" xmlns:xlink="http://www.w3.org/1999/xlink" x="0px" y="0px" viewBox="0 0 511.942 511.942" style="enable-background:new 0 0 511.942 511.942;" xml:space="preserve">
	<g>
		<g>
			<path style="fill:#445C71;" d="M295.868,294.469v104.337l-9.202,5.328v77.838c0.286,3.168-1.172,6.242-3.805,8.026l-0.208,0.069
			l-36.048,20.826l-0.83,0.484c-2.818,1.025-5.956,0.639-8.441-1.038c-7.241-4.685-11.795-12.559-12.246-21.172v-88.355
			l-9.202-5.397V248.32l37.085,21.379l5.881,3.39L295.868,294.469z" />
			<path style="fill:#445C71;" d="M249.65,414.928v88.493c0.252,2.836-0.882,5.62-3.044,7.472l-0.83,0.484
			c-2.818,1.025-5.956,0.639-8.441-1.038c-7.241-4.685-11.795-12.559-12.246-21.172v-88.355h0.069L249.65,414.928z" />
		</g>
		<g>
			<path style="fill:#394F63;" d="M286.666,404.134v77.838c0.286,3.168-1.172,6.242-3.805,8.026l-0.208,0.069l-36.048,20.826
			c2.163-1.853,3.297-4.636,3.044-7.472v-88.493l9.202,5.258l3.321-1.937L286.666,404.134z" />
			<polygon style="fill:#394F63;" points="295.87,322.145 295.87,398.806 286.668,404.134 262.175,418.249 258.854,420.186 
			258.854,300.765 		" />
		</g>
		<path style="fill:#EBECED;" d="M393.909,241.539v69.328c0.709,5.832-1.776,11.595-6.504,15.083l-1.315,0.761v0.069l-35.702,20.618
		c-3.962,2.011-8.716,1.637-12.316-0.968l-42.205-24.285l-37.016-21.379l-5.881-3.39l-37.085-21.379l-79.222-45.734
		c-11.576-8.332-18.529-21.648-18.75-35.909v-69.328c0-13.838,8.441-20.272,18.75-14.253l5.674,3.252V21.379h0.069L179.423,0
		l189.924,109.665v92.644l5.743,3.321C386.708,213.933,393.693,227.261,393.909,241.539z" />
		<path id="SVGCleanerId_0" style="fill:#EBECED;" d="M332.4,223.689l-0.069,0.069" />
		<path style="fill:#C9CED1;" d="M356.824,262.919v69.328c0.545,5.527-1.59,10.981-5.743,14.668l-0.692,0.484
		c-3.962,2.011-8.716,1.637-12.316-0.968l-42.205-24.285l-37.016-21.379l-5.881-3.39l-37.085-21.379l-79.222-45.734
		c-11.576-8.332-18.529-21.648-18.75-35.909v-69.328c0-13.838,8.441-20.272,18.75-14.253l5.674,3.252l0.069,0.069l6.227,3.598
		l6.296,3.598v0.069h0.138l3.667,2.145l2.214,1.315l4.566,2.629l9.271,5.328l28.506,16.398L331.5,223.204l0.83,0.484h0.069
		l5.673,3.321C349.65,235.341,356.603,248.658,356.824,262.919z" />
		<polygon style="fill:#B4B4B3;" points="369.349,109.665 369.349,202.309 333.163,223.204 332.333,221.751 332.333,131.044 	" />
		<polygon style="fill:#DADCDA;" points="369.349,109.665 332.333,131.044 306.664,116.238 179.425,42.759 168.009,36.255 
		142.409,21.379 179.425,0 	" />
		<path style="fill:#A5B4B4;" d="M393.909,241.539v69.328c0.709,5.832-1.776,11.595-6.504,15.083l-1.315,0.761v0.069l-35.702,20.618
		l0.692-0.484c4.153-3.688,6.288-9.141,5.743-14.668v-69.328c-0.221-14.261-7.174-27.577-18.75-35.909l-5.674-3.321l0.761-0.484
		l36.186-20.895l5.743,3.321C386.708,213.933,393.693,227.261,393.909,241.539z" />
		<g>
			<path style="fill:#B4B4B3;" d="M313.58,120.251v35.702c0,3.821-3.098,6.919-6.919,6.919c-3.821,0-6.919-3.098-6.919-6.919v-43.728
			L313.58,120.251z" />
			<path style="fill:#B4B4B3;" d="M174.925,40.199V75.97c0,3.821-3.098,6.919-6.919,6.919s-6.919-3.098-6.919-6.919V32.242
			l6.919,4.013L174.925,40.199z" />
		</g>
		<path style="fill:#EBECED;" d="M387.405,326.019l-1.315,0.761" />
		<g>
			<path id="SVGCleanerId_0_1_" style="fill:#EBECED;" d="M332.4,223.689l-0.069,0.069" />
		</g>
		<path style="fill:#EBECED;" d="M246.605,510.893l-0.83,0.484" />
		<g>
			<polyline style="fill:#B4B4B3;" points="193.36,100.698 193.36,100.767 193.36,109.679 217.887,123.876 217.887,114.889 		" />
			<polyline style="fill:#B4B4B3;" points="281.285,151.469 281.285,160.457 256.827,146.335 256.827,137.354 		" />
			<polygon style="fill:#B4B4B3;" points="281.285,132.144 281.285,160.457 256.827,146.335 256.827,118.023 		" />
			<polygon style="fill:#B4B4B3;" points="217.887,95.564 217.887,123.876 193.36,109.679 193.36,81.366 		" />
		</g>
	</g>
	<g>
	</g>
	<g>
	</g>
	<g>
	</g>
	<g>
	</g>
	<g>
	</g>
	<g>
	</g>
	<g>
	</g>
	<g>
	</g>
	<g>
	</g>
	<g>
	</g>
	<g>
	</g>
	<g>
	</g>
	<g>
	</g>
	<g>
	</g>
	<g>
	</g>
</svg>
