<svg version="1.1" id="Capa_1" xmlns="http://www.w3.org/2000/svg" xmlns:xlink="http://www.w3.org/1999/xlink" x="0px" y="0px" viewBox="0 0 512.009 512.009" style="enable-background:new 0 0 512.009 512.009;" xml:space="preserve">
	<g transform="translate(0 -1)">
		<path style="fill:#B4B4B3;" d="M468.441,279.009c0-50.37-35.632-111.81-79.498-137.133c-21.518-12.385-41.098-13.907-55.421-6.227
		l0.138,0.069l-2.145,1.038c0.646-0.41,1.316-0.779,2.006-1.107L217.838,68.882c0-0.018-0.007-0.036-0.02-0.049
		c-0.013-0.013-0.031-0.02-0.049-0.02c-13.245-23.266-32.108-42.843-54.867-56.943C141.522-0.446,122.08-1.968,107.827,5.643
		l-0.346,0.138L69.427,24.67l0.069,0.069c-15.983,7.472-26.015,25.738-26.015,52.445c0.423,19.749,4.823,39.21,12.938,57.219
		l-8.026,128.623c1.828,32.451,19.022,62.084,46.288,79.775c6.246,3.884,13.405,6.056,20.757,6.296
		c3.709,0.059,7.381-0.747,10.724-2.352l0.899-0.415l37.916-18.819l-0.069-0.138c6.949-3.201,12.066-9.387,13.907-16.813
		l7.057-20.272c4.68,6.13,10.479,11.319,17.09,15.291c6.308,4.419,14.314,5.647,21.656,3.321l2.975-1.453l0.069-0.069l11.07-5.397
		c4.989,17.418,16.093,32.453,31.274,42.344c7.148,5.291,16.696,6.017,24.562,1.868l0.277-0.138l0.069-0.069l13.561-6.711
		l25.669,103.991c3.175,13.258,8.833,25.795,16.675,36.947c7.219,10.672,16.63,19.682,27.606,26.43
		c12.938,7.403,24.631,8.164,33.003,3.252l0.484-0.277l0.069-0.069l37.224-18.473v-0.138c9.41-4.221,15.429-14.876,15.429-30.582
		l-8.233-140.039C464.96,308.299,469.203,293.742,468.441,279.009z M303.286,319.762c-0.069-0.899-0.208-1.868-0.346-2.837
		l0.83,3.252C303.632,320.039,303.425,319.9,303.286,319.762L303.286,319.762z" />
		<path style="fill:#717275;" d="M185.872,290.218v0.069l-7.057,20.272c-1.841,7.426-6.958,13.612-13.907,16.813l0.069,0.138
		l-37.916,18.819c5.897-3.478,10.176-9.15,11.901-15.775l30.928-89.6c-0.405,2.167-0.59,4.369-0.554,6.573
		C170.075,263.175,175.878,278.157,185.872,290.218z" />
		<g>
			<path style="fill:#B4B4B3;" d="M56.558,131.913l-0.138,2.491" />
			<path style="fill:#B4B4B3;" d="M424.713,480.281c0.008,3.083-0.247,6.162-0.761,9.202c-0.995,8.072-5.339,15.354-11.97,20.065
			l-0.069,0.069l-0.484,0.277c-8.372,4.912-20.065,4.151-33.003-3.252c-10.976-6.748-20.387-15.758-27.607-26.43
			c-7.841-11.152-13.499-23.689-16.675-36.947l-25.669-103.991l19.926-9.963c6.348,5.689,13.256,10.719,20.618,15.014
			c28.506,16.398,53.483,13.699,67.529-4.013L424.713,480.281z" />
		</g>
		<path style="fill:#DADCDA;" d="M303.632,325.089c0.758,7.983-2.511,15.818-8.718,20.895l-0.069,0.069l-0.277,0.138
		c-7.866,4.149-17.414,3.423-24.562-1.868c-15.181-9.891-26.285-24.926-31.274-42.344c-1.176-4.041-1.941-8.19-2.283-12.385
		c0.069-1.038,0.138-2.076,0.138-3.114c0-1.107-0.069-2.214-0.138-3.321c0.009-0.602,0.055-1.203,0.138-1.799
		c2.214-17.643,16.398-24.078,33.418-14.253c2.165,1.271,4.245,2.681,6.227,4.221c0.138,0.069,0.208,0.208,0.346,0.277
		c11.328,9.589,19.722,22.179,24.216,36.324l1.73,7.057l0.208,0.83c0,0.208,0.069,0.346,0.069,0.554
		c0.069,0.208,0.069,0.415,0.138,0.553c0.138,0.969,0.277,1.937,0.346,2.837C303.503,321.53,303.618,323.309,303.632,325.089z" />
		<g>
			<path style="fill:#B4B4B3;" d="M236.449,283.161c0.069,1.107,0.138,2.214,0.138,3.321c0,1.038-0.069,2.076-0.138,3.114
			c-0.069-1.176-0.138-2.283-0.138-3.321C236.311,285.167,236.381,284.129,236.449,283.161z" />
			<path style="fill:#B4B4B3;" d="M302.525,314.988l-1.73-7.057C301.559,310.233,302.138,312.593,302.525,314.988z" />
		</g>
		<path style="fill:#DADCDA;" d="M236.311,286.274c0,1.038,0.069,2.145,0.138,3.321c0.077,6.99-3.188,13.597-8.787,17.782
		l-0.069,0.069l-2.975,1.453c-7.342,2.326-15.349,1.098-21.656-3.321c-6.611-3.972-12.41-9.161-17.09-15.291v-0.069
		c-9.994-12.061-15.798-27.043-16.536-42.69c-0.037-2.204,0.149-4.406,0.554-6.573l2.768-8.164
		c5.397-9.825,16.951-12.108,30.305-4.359c1.193,0.649,2.348,1.365,3.459,2.145c1.038,0.761,2.145,1.522,3.114,2.352
		c14.584,12.17,24.106,29.34,26.707,48.156c0.138,0.683,0.207,1.379,0.208,2.076C236.381,284.129,236.311,285.167,236.311,286.274z" />
		<g>
			<path style="fill:#B4B4B3;" d="M169.89,240.679c0.468-2.767,1.404-5.434,2.768-7.888l-2.768,8.164V240.679z" />
			<path style="fill:#B4B4B3;" d="M236.588,286.482c0,1.038-0.069,2.076-0.138,3.114c-0.069-1.176-0.138-2.283-0.138-3.321
			c0-1.107,0.069-2.145,0.138-3.114C236.519,284.268,236.588,285.375,236.588,286.482z" />
		</g>
		<path style="fill:#DADCDA;" d="M202.547,168.999c0,27.33-10.448,45.803-27.053,52.93c-13.976,6.019-32.381,4.013-52.445-7.611
		c-6.376-3.707-12.397-7.991-17.989-12.8c-2.006-1.591-4.013-3.39-5.95-5.189c-0.069,0-0.069,0-0.069-0.069
		c-1.315-1.176-2.56-2.352-3.736-3.598c-1.245-1.245-2.491-2.491-3.667-3.736v-0.069c-14.784-15.99-26.697-34.411-35.217-54.452
		c-8.115-18.01-12.515-37.471-12.938-57.219c0-26.707,10.032-44.973,26.015-52.445c14.184-6.642,32.934-4.774,53.553,7.126
		c22.645,14.076,41.448,33.545,54.729,56.666l-0.138,0.069l0.277,0.138C193.005,112.878,201.498,140.552,202.547,168.999z" />
		<path style="fill:#B4B4B3;" d="M177.916,88.739l-0.277-0.138l0.138-0.069C177.846,88.601,177.846,88.67,177.916,88.739z" />
		<g>
			<path style="fill:#717275;" d="M333.522,135.649c-0.691,0.328-1.361,0.697-2.006,1.107l-35.01,17.505l-2.768,1.384h-0.069
			L239.84,124.51l-61.924-35.771c-0.069-0.069-0.069-0.138-0.138-0.208l39.784-19.857l0.208,0.138c0.018,0,0.036,0.007,0.049,0.02
			c0.013,0.013,0.02,0.031,0.02,0.049L333.522,135.649z" />
			<path style="fill:#717275;" d="M464.636,460.354c0,15.706-6.019,26.361-15.429,30.582v0.138l-37.224,18.473
			c6.631-4.711,10.975-11.992,11.97-20.065c0.514-3.04,0.769-6.119,0.761-9.202l-8.164-139.97v-0.069l0.069-0.069l39.784-19.857
			L464.636,460.354z" />
			<path style="fill:#717275;" d="M217.769,68.813l-0.208-0.138l-39.784,19.857c-13.28-23.121-32.084-42.59-54.729-56.666
			C102.43,19.965,83.68,18.097,69.496,24.739l-0.069-0.069l38.054-18.889l0.346-0.138c14.253-7.611,33.695-6.089,55.075,6.227
			C185.661,25.969,204.524,45.546,217.769,68.813z" />
		</g>
		<path style="fill:#DADCDA;" d="M428.588,299.005c0.751,14.678-3.466,29.18-11.97,41.167l-0.069,0.069v0.069
		c-14.045,17.712-39.023,20.411-67.529,4.013c-7.363-4.295-14.271-9.325-20.618-15.014c-33.903-30.028-58.949-79.983-58.949-122.188
		c0-25.738,9.271-43.589,24.216-51.477h0.069l2.768-1.384c13.976-6.089,32.381-4.082,52.515,7.542
		C392.955,187.195,428.588,248.566,428.588,299.005z" />
		<path style="fill:#717275;" d="M468.441,279.009c0.762,14.733-3.481,29.29-12.039,41.306l-39.784,19.857
		c8.504-11.987,12.721-26.489,11.97-41.167c0-50.439-35.632-111.81-79.568-137.202c-20.134-11.624-38.538-13.63-52.515-7.542
		l35.01-17.505l2.145-1.038l-0.138-0.069c14.322-7.68,33.903-6.157,55.421,6.227C432.808,167.2,468.441,228.64,468.441,279.009z" />
		<g>
			<path style="fill:#B4B4B3;" d="M165.808,327.096l-0.83,0.415" />
			<path style="fill:#B4B4B3;" d="M175.978,223.174l-3.321,9.617c-1.363,2.453-2.299,5.12-2.768,7.888v0.277l-30.928,89.6
			c-1.725,6.625-6.004,12.297-11.901,15.775l-0.899,0.415c-3.344,1.606-7.015,2.411-10.724,2.352
			c-7.352-0.241-14.51-2.412-20.757-6.296c-27.266-17.691-44.46-47.324-46.288-79.775l8.026-128.623
			c8.52,20.041,20.434,38.462,35.217,54.452v0.069c1.176,1.245,2.422,2.491,3.667,3.736c1.176,1.245,2.422,2.422,3.736,3.598
			c0,0.069,0,0.069,0.069,0.069c1.937,1.799,3.944,3.598,5.95,5.189c5.592,4.809,11.613,9.093,17.989,12.8
			c20.065,11.624,38.469,13.63,52.445,7.611L175.978,223.174z" />
			<path style="fill:#B4B4B3;" d="M238.733,301.98l-11.07,5.397c5.599-4.185,8.864-10.792,8.787-17.782
			C236.792,293.79,237.557,297.939,238.733,301.98z" />
			<path style="fill:#B4B4B3;" d="M294.569,346.192l-1.522,0.692" />
		</g>
		<path style="fill:#DADCDA;" d="M249.09,172.048c-1.212,0.001-2.403-0.318-3.453-0.926l-19.939-11.513
		c-2.143-1.235-3.463-3.52-3.464-5.993c-0.001-2.473,1.319-4.759,3.46-5.995c2.142-1.236,4.781-1.236,6.922,0.002l19.939,11.514
		c2.714,1.566,4.038,4.761,3.225,7.787S252.224,172.052,249.09,172.048z" />
		<ellipse transform="matrix(-0.505 -0.8631 0.8631 -0.505 353.1665 751.2309)" style="fill:#D8625E;" cx="391.999" cy="274.345" rx="23.421" ry="13.52" />
		<ellipse transform="matrix(-0.505 -0.8631 0.8631 -0.505 266.2007 601.5107)" style="fill:#D77EB0;" cx="305.584" cy="224.422" rx="23.421" ry="13.52" />
		<path style="fill:#B4B4B3;" d="M157.944,127.749l-21.838-12.608V90.093c-0.187-3.33-1.951-6.372-4.748-8.188l-17.09-9.866
		c-2.622-1.514-4.748-0.303-4.748,2.705v25.048L87.682,87.184c-2.622-1.514-4.748-0.303-4.748,2.705v19.602
		c0.187,3.33,1.951,6.372,4.748,8.188l21.838,12.608v25.048c0.187,3.33,1.951,6.372,4.748,8.188l17.09,9.866
		c2.622,1.514,4.748,0.303,4.748-2.705v-25.049l21.838,12.608c2.622,1.514,4.748,0.303,4.748-2.705v-19.602
		C162.505,132.607,160.742,129.566,157.944,127.749z" />
		<ellipse transform="matrix(-0.505 -0.8631 0.8631 -0.505 273.4561 739.4639)" style="fill:#78C5D6;" cx="348.77" cy="291.318" rx="23.421" ry="13.52" />
		<ellipse transform="matrix(-0.505 -0.8631 0.8631 -0.505 345.8391 613.2489)" style="fill:#81CB97;" cx="348.769" cy="207.455" rx="23.421" ry="13.52" />
		<path style="fill:#B4B4B3;" d="M69.427,24.67l-1.245,0.623" />
	</g>
	<g>
	</g>
	<g>
	</g>
	<g>
	</g>
	<g>
	</g>
	<g>
	</g>
	<g>
	</g>
	<g>
	</g>
	<g>
	</g>
	<g>
	</g>
	<g>
	</g>
	<g>
	</g>
	<g>
	</g>
	<g>
	</g>
	<g>
	</g>
	<g>
	</g>
</svg>
