<?xml version="1.0" encoding="utf-8"?>
<!-- Generator: Adobe Illustrator 25.0.0, SVG Export Plug-In . SVG Version: 6.00 Build 0)  -->
<svg version="1.1" id="Layer_1" xmlns="http://www.w3.org/2000/svg" xmlns:xlink="http://www.w3.org/1999/xlink" x="0px" y="0px"
	 viewBox="0 0 480 480" style="enable-background:new 0 0 480 480;" xml:space="preserve">
<path class="heart-outline" d="M342.2,14.5c-40.3,0.1-78.1,19.7-101.2,52.7c-23.2-33-60.9-52.6-101.2-52.7C73.8,14.5,16,75.8,16,145.7
	c0,68.1,38.5,138.3,111.2,202.9c33.7,29.9,70.7,55.9,110.3,77.4c2.2,1.1,4.7,1.1,6.9,0c39.5-21.6,76.5-47.6,110.2-77.4
	c72.8-64.6,111.3-134.8,111.3-202.9C465.9,75.8,408.1,14.5,342.2,14.5z M240.9,410.8C213.4,395.6,31,289.5,31,145.7
	C31,83.8,81.8,29.5,139.7,29.5c39.2,0.1,75.4,21.2,94.7,55.4c1.4,2.2,3.9,3.5,6.5,3.5s5.1-1.3,6.5-3.5
	c19.3-34.2,55.5-55.3,94.7-55.4c57.9,0,108.7,54.3,108.7,116.2C450.9,289.5,268.5,395.6,240.9,410.8z"/>
</svg>
